<svg xmlns="http://www.w3.org/2000/svg" xmlns:xlink="http://www.w3.org/1999/xlink" width="1200" zoomAndPan="magnify" viewBox="0 0 900 899.99999" height="1200" preserveAspectRatio="xMidYMid meet" version="1.0"><defs><g/><clipPath id="9cb8bdf08d"><path d="M 117 201.433594 L 783 201.433594 L 783 650 L 117 650 Z M 117 201.433594 " clip-rule="nonzero"/></clipPath><clipPath id="a5ab71280b"><path d="M 95 658 L 805 658 L 805 701.207031 L 95 701.207031 Z M 95 658 " clip-rule="nonzero"/></clipPath></defs><path fill="#243b4d" d="M 450 0 C 201.472656 0 0 201.472656 0 450 C 0 698.527344 201.472656 900 450 900 C 698.527344 900 900 698.527344 900 450 C 900 201.472656 698.527344 0 450 0 " fill-opacity="1" fill-rule="nonzero"/><g clip-path="url(#9cb8bdf08d)"><path fill="#eeeee6" d="M 762.179688 201.429688 L 137.820312 201.429688 C 126.503906 201.429688 117.074219 210.910156 117.074219 222.292969 L 117.074219 628.183594 C 117.074219 639.5625 126.503906 649.046875 137.820312 649.046875 L 762.179688 649.046875 C 773.496094 649.046875 782.925781 639.5625 782.925781 628.183594 L 782.925781 222.292969 C 783.871094 210.910156 774.4375 201.429688 762.179688 201.429688 Z M 755.578125 613.960938 L 144.421875 613.960938 L 144.421875 236.515625 L 754.632812 236.515625 L 754.632812 613.960938 Z M 755.578125 613.960938 " fill-opacity="1" fill-rule="nonzero"/></g><g clip-path="url(#a5ab71280b)"><path fill="#eeeee6" d="M 804.621094 658.53125 L 495.269531 658.53125 L 476.40625 667.066406 L 422.648438 667.066406 L 403.785156 658.53125 L 95.378906 658.53125 C 95.378906 658.53125 93.496094 676.550781 125.5625 701.207031 L 775.382812 701.207031 C 806.503906 675.601562 804.621094 658.53125 804.621094 658.53125 Z M 804.621094 658.53125 " fill-opacity="1" fill-rule="nonzero"/></g><g fill="#eeeee6" fill-opacity="1"><g transform="translate(164.499752, 484.983335)"><g><path d="M 88.953125 -78.046875 L 33.890625 -57.875 L 88.953125 -37.859375 L 88.953125 -17.203125 L 10.25 -47.125 L 10.25 -68.625 L 88.953125 -98.546875 Z M 88.953125 -78.046875 "/></g></g></g><g fill="#eeeee6" fill-opacity="1"><g transform="translate(263.527591, 484.983335)"><g><path d="M 69.109375 1.984375 C 57.316406 1.984375 46.648438 -0.578125 37.109375 -5.703125 C 27.578125 -10.828125 20.082031 -17.9375 14.625 -27.03125 C 9.175781 -36.125 6.453125 -46.40625 6.453125 -57.875 C 6.453125 -69.332031 9.175781 -79.609375 14.625 -88.703125 C 20.082031 -97.796875 27.578125 -104.90625 37.109375 -110.03125 C 46.648438 -115.15625 57.375 -117.71875 69.28125 -117.71875 C 79.3125 -117.71875 88.375 -115.953125 96.46875 -112.421875 C 104.570312 -108.898438 111.378906 -103.832031 116.890625 -97.21875 L 99.703125 -81.34375 C 91.878906 -90.382812 82.179688 -94.90625 70.609375 -94.90625 C 63.441406 -94.90625 57.046875 -93.332031 51.421875 -90.1875 C 45.796875 -87.050781 41.410156 -82.671875 38.265625 -77.046875 C 35.128906 -71.429688 33.5625 -65.039062 33.5625 -57.875 C 33.5625 -50.707031 35.128906 -44.3125 38.265625 -38.6875 C 41.410156 -33.070312 45.796875 -28.691406 51.421875 -25.546875 C 57.046875 -22.398438 63.441406 -20.828125 70.609375 -20.828125 C 82.179688 -20.828125 91.878906 -25.40625 99.703125 -34.5625 L 116.890625 -18.6875 C 111.378906 -11.957031 104.546875 -6.828125 96.390625 -3.296875 C 88.234375 0.222656 79.140625 1.984375 69.109375 1.984375 Z M 69.109375 1.984375 "/></g></g></g><g fill="#eeeee6" fill-opacity="1"><g transform="translate(384.708585, 484.983335)"><g><path d="M 55.890625 -45.46875 L 40.34375 -29.265625 L 40.34375 0 L 13.71875 0 L 13.71875 -115.734375 L 40.34375 -115.734375 L 40.34375 -61.671875 L 91.59375 -115.734375 L 121.359375 -115.734375 L 73.40625 -64.15625 L 124.171875 0 L 92.921875 0 Z M 55.890625 -45.46875 "/></g></g></g><g fill="#eeeee6" fill-opacity="1"><g transform="translate(507.046836, 484.983335)"><g><path d="M 0 0 L 82.671875 0 L 82.671875 14.875 L 0 14.875 Z M 0 0 "/></g></g></g><g fill="#eeeee6" fill-opacity="1"><g transform="translate(589.707835, 484.983335)"><g/></g></g><g fill="#eeeee6" fill-opacity="1"><g transform="translate(636.493969, 484.983335)"><g><path d="M 88.953125 -68.625 L 88.953125 -47.125 L 10.25 -17.203125 L 10.25 -37.859375 L 65.3125 -57.875 L 10.25 -78.046875 L 10.25 -98.546875 Z M 88.953125 -68.625 "/></g></g></g></svg>